<svg id="Layer_1" data-name="Layer 1" xmlns="http://www.w3.org/2000/svg" viewBox="0 0 390.67 294"><title>logo_white</title><ellipse cx="254.93" cy="161.78" rx="131.36" ry="90.36" fill="#e1251b"/><path d="M182,112.57h3.94l4,14.48,3.88-14.48h6.05v19H196V116.23l-4.06,15.35h-4.15l-4.06-15.35v15.35H179.9v-17A2.06,2.06,0,0,1,182,112.57Z" fill="#fff"/><path d="M201.84,114.61a1.81,1.81,0,0,1,2-2h2v19h-4.07Z" fill="#fff"/><path d="M210,112.57h2v15.52h9.7v3.49H207.92v-17A2.06,2.06,0,0,1,210,112.57Z" fill="#fff"/><path d="M245.79,112.57l-5.64,19h-3.89L233.19,117l-3.09,14.56h-3.92l-5.67-19h4.24L228.11,126,231,112.57h4.33L238.22,126l3-11.91a2,2,0,0,1,2.05-1.48Z" fill="#fff"/><path d="M255.34,112.57l7.13,19h-4.29l-1.32-3.89h-7.68l-1.32,3.89h-4.35l6.63-17.75a1.82,1.82,0,0,1,1.93-1.26Zm-5.08,11.91h5.46L253,116.4Z" fill="#fff"/><path d="M265.62,112.57h2v11.74c0,2.77,1.29,4.17,3.83,4.19s3.83-1.39,3.83-4.19V112.57h4v12.19c0,4.67-2.86,7.1-7.86,7.1s-7.89-2.29-7.89-7.1V114.61A2.12,2.12,0,0,1,265.62,112.57Z" fill="#fff"/><path d="M283.24,112.57h2v7.83l7.74-7.83h5.14l-7.91,7.72,8.62,11.29h-5l-5-6.71c-.87-1.12-1.69-1.57-2.45-1.31a1.41,1.41,0,0,0-1.14,1.37v6.65H281.2v-17A2.06,2.06,0,0,1,283.24,112.57Z" fill="#fff"/><path d="M299.16,114.61a1.84,1.84,0,0,1,2-2h12.33v3.3H303.17V120h7.74v1.26c0,1.31-.67,2-2.1,2h-5.64v4.92h10.37v3.49H299.16Z" fill="#fff"/><path d="M315.64,114.61a1.83,1.83,0,0,1,2.05-2H330v3.3H319.65V120h7.74v1.26c0,1.31-.67,2-2.11,2h-5.63v4.92H330v3.49H315.64Z" fill="#fff"/><path d="M158,142.31H170.6l12.81,46.34,12.43-46.34H215.2v60.84H203V154l-13,49.12H176.68l-13-49.12v49.12H151.44V148.84A6.59,6.59,0,0,1,158,142.31Z" fill="#fff"/><path d="M259.32,142.31l22.82,60.84H268.39l-4.2-12.44H239.6l-4.21,12.44H221.46l21.22-56.81c.94-2.69,3-4,6.17-4Zm-16.26,38.11h17.48l-8.79-25.85Z" fill="#fff"/><path d="M294.94,142.31h6.46v25.05l24.77-25.05h16.45L317.29,167l27.58,36.15H329l-16.08-21.48c-2.8-3.57-5.42-5-7.85-4.2s-3.64,2.33-3.64,4.38v21.3h-13V148.84A6.59,6.59,0,0,1,294.94,142.31Z" fill="#fff"/><path d="M345.52,148.84c0-4.29,2.15-6.53,6.55-6.53h6.45v60.84h-13Z" fill="#fff"/><path d="M78,244.22l.16.09-.13-.12Z" fill="#00263a"/><path d="M243.93,38.91,189.39,74.82q8.54,8.87,17.25,18.33,6,6.5,11.71,12.91c-19.45-.94-57.77.17-95.7,23.06a158.35,158.35,0,0,0-29.84,23.32C81.19,154,59,155,36.19,143.75A91.45,91.45,0,0,1,19.48,133.1C22.6,77.58,58.29,29.47,109.35,11.56,155.18-4.51,206.8,6.09,243.93,38.91Z" fill="#00263a"/><path d="M105.62,9.38a114.52,114.52,0,0,0-20.25,8.8A122.83,122.83,0,0,0,50.09,47.86L4.38,23.27A198.57,198.57,0,0,1,105.62,9.38Z" fill="#00263a"/><path d="M157.54,116.66s-23.59,7.83-37,19.58c0,0-1.36,17.66,9,31C129.55,167.24,159.31,129.7,157.54,116.66Z" fill="#00263a"/><path d="M131.92,240.27s3.33-41.48,48.63-33.2C180.55,207.07,176.38,247.18,131.92,240.27Z" fill="#00263a"/><path d="M131.21,243.69s42.3,1.36,33.49,46.14C164.7,289.83,123.79,287.59,131.21,243.69Z" fill="#00263a"/><path d="M91.8,166.56S96,197.6,96.09,204c.23,11.78-36.52,29.14-46.4,18.39C43.12,215.2,28.15,199.41,24,178.79" fill="#00263a"/><ellipse cx="57.84" cy="172.68" rx="34.75" ry="14.26" transform="translate(-30.94 13.68) rotate(-10.66)" fill="#fff"/><ellipse cx="57.84" cy="172.68" rx="18.55" ry="7.67" transform="translate(-30.94 13.68) rotate(-10.66)" fill="#e1251b"/><path d="M109.43,213.47s16.11,13.53,18,15.89c3.46,4.25-8,25.61-19.81,26,0,0-9.51.37-29.63-11.15" fill="#00263a"/><ellipse cx="93.41" cy="228.37" rx="22.08" ry="9.47" transform="translate(-134.56 133.99) rotate(-45.27)" fill="#fff"/><ellipse cx="93.41" cy="228.37" rx="12.02" ry="4.22" transform="translate(-134.56 133.99) rotate(-45.27)" fill="#e1251b"/><ellipse cx="178.47" cy="42" rx="22.07" ry="15.67" transform="translate(-4.22 26.57) rotate(-8.42)" fill="#fff"/><ellipse cx="178.66" cy="41.97" rx="8.93" ry="6.34" transform="translate(-4.22 26.6) rotate(-8.42)" fill="#00263a"/></svg>